<svg width="500" height="500" viewBox="0 0 500 500" fill="none" xmlns="http://www.w3.org/2000/svg">
<path d="M80.7 187.7C80.3 188 80 214.5 80 246.5V304.7L116.8 305.2C137 305.4 156.2 305.3 159.5 305C162.8 304.6 146.5 304.2 123.3 304.1L81 304V246V188H250H419V218.9V249.8L416.4 252.9C415 254.6 413.5 256 413.1 256C412.7 256 413 253.3 413.9 250C415.3 244.4 415.3 243.9 413.7 242.3C412.1 240.7 411.6 241 404.1 249C399.7 253.7 395.8 257.2 395.4 256.8C395 256.4 396.1 253.7 397.9 250.9C403.1 242.5 399.5 239.9 392.5 247C388.3 251.3 386.9 251.6 389.5 247.6C391.2 245 391 242 389.1 242C388.5 242 386.5 244.5 384.5 247.5C382.6 250.5 380.6 253 380.1 253C379.6 253 379.3 250.6 379.4 247.7L379.5 242.5L375.9 242.2C372.5 241.9 371.8 242.4 367.4 247.6C356.1 260.9 353.1 262.5 359.4 252C366.2 240.5 363.6 240 353.2 250.7C348.7 255.5 345.6 258 345.3 257.2C345 256.5 347 252.5 349.7 248.2C354.5 240.8 354.8 240.5 359.1 240C364.2 239.4 365.4 236.7 360.8 236.2C358.4 235.9 358.2 235.6 359.2 234.1C360.4 232.2 359.7 229 358.2 229C357.7 229 356.1 230.8 354.6 233C352.3 236.6 351.5 237 348 237C343.4 237 342.3 239.5 346.5 240.6L348.9 241.2L346.3 245.3C343.2 250.2 337 257 335.7 257C335.2 257 336 255 337.4 252.6C340.7 247 340.7 245.7 337.4 243.5C333.7 241.1 331.3 242.1 323.9 249.2C316.4 256.4 310.6 260 309 258.4C307.4 256.8 309 253.8 311.1 254.3C313.4 254.9 318.8 251.6 320.1 248.6C320.9 246.9 320.9 245.7 320 244C317.9 240 313.6 242 304.9 251.2C300.6 255.7 296.8 259.1 296.4 258.8C295.7 258 296.4 256.8 301.4 250.6C304 247.3 304.1 246.8 302.8 244.8C301.6 242.9 300.4 242.5 296.9 242.6C293.2 242.7 292.5 243.1 291.9 245.3C291.5 246.7 290.5 248.9 289.6 250.2C286.6 254.5 287.9 255.6 291.5 251.7C296.3 246.7 297.6 247 294 252.4C290.8 257.1 290.3 259.9 292.2 261.8C294 263.6 296.3 263.3 300.3 260.6L303.9 258.1L305.5 260.6C307.5 263.6 310.3 263.6 315.7 260.5C319.9 258.2 320 258.2 321 260.1C322.5 262.7 324.9 262.5 328.1 259.4C330.8 256.9 330.8 256.8 331.5 258.9C332.3 261.4 335.6 261.7 338.2 259.3C339.8 257.8 340 257.8 340 259.3C340 261.2 342.9 262.9 345 262.2C345.8 261.9 347.7 260.8 349.3 259.8C352 257.9 352 257.9 352 259.9C352 263.7 357.7 263.5 361 259.5C362.2 258.1 362.4 258.2 363.4 260.2C365.2 263.7 369.2 263.7 373.3 260.1C377.1 256.7 379.6 256 378.6 258.6C378.2 259.5 378.5 260.9 379.1 261.7C380.1 262.9 381.3 262 386.2 256.8C390.6 252.1 391.9 251.1 391.4 253C389.3 260.2 391.8 263.8 396.9 260.8C399.7 259.3 399.9 259.3 401.6 261.1C402.5 262.1 404.3 263 405.4 263C407.7 263 413.3 259.9 416.8 256.7L419 254.7V279.3V304L376.8 304.2C353.5 304.3 339.7 304.6 346 304.9C352.3 305.2 371.6 305.4 388.8 305.2L420 304.8V278.9C420 261.8 420.4 252.2 421.1 250.8C421.9 249.3 421.9 248.6 421.1 248.1C420.4 247.6 419.9 237.7 419.8 217.5L419.5 187.5L250.4 187.2C157.4 187.1 81 187.3 80.7 187.7ZM315 249.5C313.7 250.9 312.4 251.8 312.2 251.5C311.9 251.2 312.7 249.9 314 248.5C315.3 247.1 316.6 246.2 316.8 246.5C317.1 246.8 316.3 248.1 315 249.5ZM331.8 251.2C326.8 257 324 258.8 326 254.9C327.8 251.4 333.2 246 334.8 246C335.7 246 334.5 248.1 331.8 251.2ZM376.3 248C376 249.1 375.4 250.3 374.9 250.6C373.9 251.2 373.7 247.7 374.7 246.7C376 245.4 376.8 246 376.3 248ZM408.3 252.2C407.4 257.2 403 261.4 403 257.3C403 255.8 407.5 249 408.5 249C408.8 249 408.7 250.5 408.3 252.2ZM371.4 253.7C372.1 255.5 368.6 259.9 367.4 258.7C366.6 257.9 368.9 252 370 252C370.4 252 371.1 252.8 371.4 253.7Z" fill="black"/>
<path d="M232.3 229.1C229.5 234.2 229.3 235.2 230.6 235.7C232.6 236.4 235.5 233.6 237.5 228.8C238.9 225.3 238.9 225 237.2 224.1C235.8 223.3 235 224.2 232.3 229.1Z" fill="#F4C1DA"/>
<path d="M282.9 224.4C277.9 226.2 274.6 228.9 269 235.9C263 243.4 260.6 249.5 261.3 255.5C262.4 266.1 271.8 268.9 280.1 261C283 258.2 284 256.5 284 254.1V251L278.9 255C273.7 259.1 269.9 260.7 268.1 259.5C267.5 259.2 267 256.9 267 254.4C267 248.7 270.7 241.2 276.5 235.5C280.8 231.1 288.7 226.4 289.8 227.4C290.7 228.4 288.3 232.7 284.4 236.9L280.8 241H283.5C287.1 241 291.4 237.8 293.4 233.6C295.5 229.1 295.4 228.4 292.5 225.5C289.8 222.7 288.1 222.5 282.9 224.4Z" fill="black"/>
<path d="M111.4 225.2C107.5 226.4 99.4 232.5 96.7 236.2C94.2 239.6 94.1 244.3 96.5 247C97.5 248.1 100.7 249.7 103.7 250.6C106.6 251.4 109.2 252.5 109.4 252.9C109.7 253.3 108.8 254.7 107.4 255.9C100.4 262 88.9 261.2 92.9 254.9C94.4 252.3 92 252.3 89.7 254.8C87.4 257.3 87.6 259.4 90.3 262.6C92.4 265 93.4 265.3 97.8 265.2C106.6 265 115 259.1 115 253C115 249.4 112.5 247.3 105.9 245.4C98.4 243.2 98 242.6 102.1 238.4C106.2 234.1 112.3 230.5 116.8 229.5C121.3 228.6 121 230.8 116 236.1C113.8 238.4 112 240.5 112 240.7C112 240.8 113.3 241 115 241C121.8 241 127.7 230.6 123.5 226C121.5 223.8 116.7 223.5 111.4 225.2Z" fill="black"/>
<path d="M186.2 227.8C185.3 228.7 182.5 232.8 180 236.7C176.2 242.9 175.4 243.7 173.8 242.9C171.3 241.5 168 242.7 165 246C163.6 247.5 160.8 250.6 158.7 252.8C155 256.8 153 258 153 256.2C153 255.8 154.4 253.2 156.1 250.6C161.3 242.3 157.5 240.1 150.2 247.2C145.7 251.6 145.5 251.6 148 246.7C149.1 244.5 149.1 243.7 148.1 242.7C147.1 241.7 146.4 242.1 144.6 244.5C141.2 249.2 133.8 257 132.8 257C132.2 257 133 255 134.4 252.6C135.8 250.1 137 247.5 137 246.7C137 244.5 132.2 241.7 129.6 242.4C126.3 243.2 119.1 250.9 118 254.9C116.2 261.6 120.2 264.1 125.1 259.4C127.8 256.9 127.8 256.8 128.5 258.9C129.2 261.2 133.4 261.9 134.5 259.9C135 259.3 135.8 259.7 136.7 261C138.2 263.2 138.3 263.1 144.2 256.8C148.5 252.1 149.9 251.1 149.4 253C147.3 260 149.6 263.5 154.7 261C156.2 260.2 157.8 259.4 158.3 259.2C158.7 259 159 259.5 159 260.3C159 264 164.6 262.7 167.4 258.4L169.2 255.7L170.6 258.8C171.4 260.8 172.6 262 173.8 262C175.7 262 187 250.8 187 248.9C187 248.4 187.7 248 188.5 248C189.5 248 189.1 249.3 186.9 252.5C181.6 260.3 184.7 265.3 192.2 261.2C195.8 259.2 196.5 259.1 197.2 260.5C198.6 262.8 202 262.3 204.3 259.4L206.3 256.8L207.7 259.4C208.4 260.8 209.3 262 209.6 262C211.6 262 216.5 258.3 219 254.8C223.8 248.3 222.6 246.9 217 252.5C211.9 257.5 210.4 257 214 251.5C216.7 247.5 216.5 245.6 213.4 243.5C209.4 240.9 206.7 242.3 198 251.2C193.6 255.7 189.7 259.1 189.4 258.7C189 258.3 190.6 255.6 192.9 252.7C195.1 249.7 197 246.8 197 246.3C197 244.2 193.9 242.7 189.8 242.7C186.1 242.7 185.5 243 184.9 245.3C184 248.6 177.2 257 175.4 257C173.2 257 175.5 252.2 182 243.5C188.7 234.6 191 230.6 191 227.8C191 225.5 188.5 225.5 186.2 227.8ZM128.8 251.2C123.8 257 121 258.8 123 254.9C124.8 251.4 130.2 246 131.8 246C132.7 246 131.5 248.1 128.8 251.2ZM168.4 253.1C165.8 255.8 163.4 257.8 163.2 257.6C162.4 256.7 166.1 251.1 169.2 248.5C174.4 244.1 173.8 247.6 168.4 253.1ZM207.8 251.2C202.8 257 200 258.8 202 254.9C203.8 251.4 209.2 246 210.8 246C211.7 246 210.5 248.1 207.8 251.2Z" fill="black"/>
<path d="M367.2 230.6C364.8 232.3 364.5 236 366.7 236.7C368.5 237.3 371.3 232.4 370.3 230.6C369.5 229.2 369.2 229.2 367.2 230.6Z" fill="#F4C1DB"/>
<path d="M239.8 242.1C238.9 242.6 235.9 245.9 233.1 249.4C227.8 256 227.5 257.4 230.8 261.2C233 263.8 235.9 263.4 241.3 260.1C245.9 257.1 251.9 249.6 250.6 248.3C250.3 247.9 248.4 249.5 246.4 251.8C244.5 254.1 242.5 256 242.1 256C241.7 256 242 253.3 242.9 250C244.3 244.7 244.3 243.9 243 242.6C241.9 241.6 241 241.4 239.8 242.1ZM237.3 252.2C236.3 257.7 232 261.4 232 256.8C232 255.1 236.4 249 237.7 249C237.8 249 237.7 250.5 237.3 252.2Z" fill="black"/>
<path d="M178.5 299.5C178.5 301.4 178.8 303 179.3 303C179.7 303 180 301.4 180 299.5C180 297.6 179.7 296 179.3 296C178.8 296 178.5 297.6 178.5 299.5Z" fill="black"/>
<path d="M183.3 299.5C183.3 301.7 183.5 302.5 183.7 301.2C183.9 300 183.9 298.2 183.7 297.2C183.4 296.3 183.2 297.3 183.3 299.5Z" fill="black"/>
<path d="M189.5 297.5C189.9 298.6 190.5 300.3 190.7 301.2C191 302.2 191.6 303 192.1 303C192.6 303 192.4 301.8 191.8 300.2C190.4 296.9 188.3 294.5 189.5 297.5Z" fill="black"/>
<path d="M198.2 299.4C199.5 301.3 200.6 302.7 200.8 302.5C201.4 301.9 197.7 296 196.8 296C196.3 296 197 297.5 198.2 299.4Z" fill="black"/>
<path d="M205.3 299.5C205.3 301.7 205.5 302.5 205.7 301.2C205.9 300 205.9 298.2 205.7 297.2C205.4 296.3 205.2 297.3 205.3 299.5Z" fill="black"/>
<path d="M208.9 299.2C209.3 302 209.5 302.1 209.8 300.1C210 298.8 209.8 297.4 209.3 296.9C208.7 296.3 208.6 297.2 208.9 299.2Z" fill="black"/>
<path d="M215.2 298.7C216.6 302.1 218.7 304.5 217.5 301.5C217.1 300.4 216.5 298.7 216.3 297.7C216 296.8 215.4 296 214.9 296C214.4 296 214.6 297.2 215.2 298.7Z" fill="black"/>
<path d="M219 299.5C219 301.4 219.5 303 220 303C220.6 303 221 301.4 221 299.5C221 297.6 220.6 296 220 296C219.5 296 219 297.6 219 299.5Z" fill="black"/>
<path d="M226.5 297.5C226.9 298.6 227.5 300.3 227.7 301.2C228 302.2 228.6 303 229.1 303C229.6 303 229.4 301.8 228.8 300.2C227.4 296.9 225.3 294.5 226.5 297.5Z" fill="black"/>
<path d="M233.3 299.5C233.3 301.7 233.5 302.5 233.7 301.2C233.9 300 233.9 298.2 233.7 297.2C233.4 296.3 233.2 297.3 233.3 299.5Z" fill="black"/>
<path d="M236.9 299.2C237.3 302 237.5 302.1 237.8 300.1C238 298.8 237.8 297.4 237.3 296.9C236.7 296.3 236.6 297.2 236.9 299.2Z" fill="black"/>
<path d="M242.3 299.5C242.3 301.7 242.5 302.5 242.7 301.2C242.9 300 242.9 298.2 242.7 297.2C242.4 296.3 242.2 297.3 242.3 299.5Z" fill="black"/>
<path d="M254.3 299C254.9 300.6 255.6 301.8 255.8 301.6C256.4 301 254.8 296 254 296C253.5 296 253.7 297.3 254.3 299Z" fill="black"/>
<path d="M257.6 298C257.9 299.4 258.7 301.2 259.2 302C259.8 303 259.9 302.7 259.4 301C259.1 299.6 258.3 297.8 257.8 297C257.2 296 257.1 296.3 257.6 298Z" fill="black"/>
<path d="M265.3 299.5C265.3 301.7 265.5 302.5 265.7 301.2C265.9 300 265.9 298.2 265.7 297.2C265.4 296.3 265.2 297.3 265.3 299.5Z" fill="black"/>
<path d="M272.3 299.5C272.3 301.7 272.5 302.5 272.7 301.2C272.9 300 272.9 298.2 272.7 297.2C272.4 296.3 272.2 297.3 272.3 299.5Z" fill="black"/>
<path d="M278 299.5C278 301.4 278.5 303 279 303C279.6 303 280 301.4 280 299.5C280 297.6 279.6 296 279 296C278.5 296 278 297.6 278 299.5Z" fill="black"/>
<path d="M282.8 299.5C282.6 301.4 282.8 303 283.2 303C283.6 303 284 301.4 284 299.5C284 297.6 283.8 296 283.6 296C283.4 296 283 297.6 282.8 299.5Z" fill="black"/>
<path d="M292.3 299.5C292.3 301.7 292.5 302.5 292.7 301.2C292.9 300 292.9 298.2 292.7 297.2C292.4 296.3 292.2 297.3 292.3 299.5Z" fill="black"/>
<path d="M309.3 299C309.9 300.6 310.8 302 311.1 302C311.5 302 311.3 300.6 310.7 299C310.1 297.3 309.2 296 308.9 296C308.5 296 308.7 297.3 309.3 299Z" fill="black"/>
<path d="M317.5 299.5C317.5 301.4 317.8 303 318.3 303C318.7 303 319 301.4 319 299.5C319 297.6 318.7 296 318.3 296C317.8 296 317.5 297.6 317.5 299.5Z" fill="black"/>
<path d="M176.2 150.841C163.1 152.941 149.6 163.641 145.3 175.241C144.1 178.341 143.2 181.241 143.2 181.741C143.2 182.341 146.3 182.741 150.2 182.741H157.1L157.7 178.941C159.7 167.641 163.6 160.441 170.3 156.041C176.2 152.141 186.9 151.541 193.1 154.641C200.1 158.241 204.5 166.141 206.7 178.941L207.3 182.741H215.9H224.5L223.8 177.641C221.2 157.941 201.3 146.741 176.2 150.841Z" fill="#ECC1EC"/>
<path d="M311.7 150.341C301.8 151.941 292.7 155.741 284.9 161.641C280.1 165.141 272.5 174.341 269.6 179.941L268.1 182.741H277.1H286L287.7 177.841C289.8 171.341 296.2 161.641 300 158.841C306.3 154.441 311.4 152.741 319.2 152.741C328.3 152.741 333.7 154.941 337.7 160.141C340.8 164.141 344.2 174.241 344.2 179.341V182.741H353.2H362.2V177.941C362.1 166.341 352.4 156.041 337.7 152.141C332.3 150.641 316.6 149.641 311.7 150.341Z" fill="#ECC1EC"/>
<path d="M141.7 191.241C139.9 207.841 145.4 222.941 157.2 234.141C164.2 240.641 164.3 240.741 166.7 239.141C168.3 238.041 170.3 237.741 172.2 238.041C174.9 238.641 175.3 238.241 178.2 233.241C179.9 230.241 181.8 227.541 182.3 227.141C182.8 226.841 180.2 224.441 176.4 221.741C164.1 213.141 159.7 206.341 157.9 193.141L156.8 184.741H149.6H142.4L141.7 191.241Z" fill="#ECC1EC"/>
<path d="M207.2 188.541C207.2 190.641 207.4 192.641 207.7 192.941C208 193.241 210.4 193.041 212.9 192.641C217.6 191.741 220.6 189.741 222.3 186.541C223.2 184.841 222.6 184.741 215.2 184.741H207.2V188.541Z" fill="#ECC1EC"/>
<path d="M266.4 186.441C263.5 192.041 259.9 206.141 258.2 217.941C256.8 227.341 256.9 255.241 258.2 264.741C259.8 275.941 263.4 289.841 264.9 290.441C265.6 290.741 266.2 292.141 266.2 293.641C266.2 298.141 272.4 308.641 279.4 316.241C286.8 324.141 295.6 329.541 305.2 331.841C313.7 333.941 329.5 333.441 337.8 330.941C351.9 326.641 362.2 315.541 362.2 304.641C362.2 302.041 361.9 301.741 358.8 301.741C355.6 301.741 355.4 302.041 353.4 307.441C347.1 324.641 336.9 331.741 320.2 330.541C311.7 329.941 303.8 326.341 298.3 320.641C293.5 315.641 288.1 305.441 286.1 297.841C284.7 292.341 282.7 290.741 283.4 295.741C283.7 297.741 283.4 298.741 282.5 298.741C281.8 298.741 281.2 298.041 281.2 297.241C281.2 296.441 280.7 295.741 280.1 295.741C279.5 295.741 279.2 296.441 279.6 297.241C279.9 298.241 279.5 298.741 278.4 298.741C277.1 298.741 276.7 297.841 276.7 294.741C276.7 291.541 277.1 290.741 278.5 290.741C279.9 290.741 280.2 291.241 279.7 292.741C279.3 293.841 279.5 294.741 280.1 294.741C280.7 294.741 281.2 293.841 281.2 292.741C281.2 291.641 281.9 290.741 282.8 290.741C283.8 290.741 284.2 290.141 283.8 288.941C282.7 285.041 281.2 275.241 280.6 266.841L279.9 257.841L276.3 259.841C271 262.641 266.6 262.341 263.1 258.841C260.6 256.241 260.2 255.141 260.2 250.241C260.2 246.341 261 243.041 262.7 239.341C265.4 233.641 275.1 222.241 278.1 221.241C279.6 220.741 280.1 219.241 280.7 212.941C281.4 205.341 283.4 192.841 284.7 187.441L285.4 184.741H276.3C268.7 184.741 267.1 185.041 266.4 186.441ZM275.2 292.341C275.2 293.441 274.7 293.741 273.6 293.341C272.3 292.841 272.1 293.241 272.4 295.741C272.7 297.641 272.4 298.741 271.7 298.741C271 298.741 270.7 297.541 271 295.541C271.4 292.941 271.2 292.541 269.8 293.041C268.8 293.441 268.2 293.141 268.2 292.241C268.2 291.241 269.3 290.741 271.7 290.741C274.2 290.741 275.2 291.141 275.2 292.341Z" fill="#ECC1EC"/>
<path d="M345.2 189.741C345.2 194.241 345.4 194.741 347.5 194.741C352.6 194.641 361.2 188.841 361.2 185.541C361.2 185.041 357.6 184.741 353.2 184.741H345.2V189.741Z" fill="#ECC1EC"/>
<path d="M275.3 232.341C268.1 240.141 263.5 253.541 267.5 255.041C269.2 255.641 276.2 252.641 277.9 250.641C278.8 249.541 280.4 227.741 279.6 227.741C279.5 227.741 277.6 229.741 275.3 232.341Z" fill="#ECC1EC"/>
<path d="M187.3 231.641C186.7 232.741 183.9 236.541 181.2 240.141C176 246.941 175.2 248.741 177.6 248.741C179.4 248.741 182.8 244.041 183.7 240.541C184.3 238.241 184.8 238.041 189.5 238.141C194.1 238.241 194.7 238.541 195.6 240.841C196.4 243.141 196 244.141 192.7 248.141C186.6 255.641 189.5 254.641 197.1 246.641L204.1 239.341L200.9 237.241C199.1 236.041 195.6 233.841 193 232.341C188.4 229.641 188.3 229.641 187.3 231.641Z" fill="#ECC1EC"/>
<path d="M205.8 245.441C201.6 249.641 200.2 252.941 204.2 249.241C207.1 246.441 209.8 242.741 208.9 242.741C208.7 242.741 207.2 243.941 205.8 245.441Z" fill="#ECC1EC"/>
<path d="M185.6 246.441C184.5 248.041 183.2 249.941 182.7 250.741C182 251.941 182.1 252.041 183.3 251.041C184.7 249.941 188.6 243.741 187.9 243.741C187.7 243.741 186.7 244.941 185.6 246.441Z" fill="#ECC1EC"/>
<path d="M212.1 249.941C210.9 252.241 210.9 252.241 213.1 250.341C215.4 248.241 215.7 247.741 214.2 247.741C213.7 247.741 212.7 248.741 212.1 249.941Z" fill="#ECC1EC"/>
<path d="M214.7 254.741C211.4 258.241 208.9 258.541 206.9 255.741C205.5 253.841 205.5 253.841 203.2 256.241C200.4 259.241 197.8 259.441 195.9 256.741C194.6 254.841 194.4 254.841 193.1 256.341C192 257.741 192.1 258.041 193.7 259.041C197.4 261.041 204.4 268.141 206.7 272.141C209.1 276.541 210.7 281.041 211.7 286.941C212 289.141 212.9 290.741 213.6 290.741C214.4 290.741 215.3 291.941 215.7 293.441L216.4 296.241L217.4 293.441C218.9 289.341 220.8 290.041 220.7 294.741V298.741H216.5H212.4L211.7 303.941C210.1 315.441 204.8 324.241 196.9 328.441C194.8 329.541 190.6 330.241 184.7 330.541C176.4 330.841 175.3 330.641 170.2 328.041C163.1 324.441 158.8 318.641 156 309.141L153.8 301.741H145.5H137.2L137.9 304.941C139.7 315.041 147.7 324.741 157.7 329.341C168.1 334.141 188 334.541 200.2 330.241C213.6 325.541 223.9 313.241 226.7 298.941C226.9 297.441 226.6 296.741 225.6 296.741C224.8 296.741 224.4 297.141 224.7 297.741C225 298.241 224.6 298.741 223.7 298.741C222.3 298.741 222.3 298.441 223.5 295.941C224.3 294.441 225.2 292.541 225.4 291.741C225.8 290.641 226.2 290.941 227 292.741C228.8 296.941 228.5 275.241 226.7 268.241C225.2 262.741 219.6 251.741 218.2 251.741C217.8 251.741 216.3 253.041 214.7 254.741Z" fill="#ECC1EC"/>
<path d="M145.2 284.541C141.3 286.441 138.7 290.441 137.7 295.941L137 299.741H145.2H153.5L152.8 293.641C152.5 290.241 152.2 286.341 152.2 285.141C152.2 282.241 150.1 282.041 145.2 284.541Z" fill="#ECC1EC"/>
<path d="M355.9 297.741C355.5 299.441 355.9 299.741 358.4 299.741C361.4 299.741 361.5 299.741 359.7 297.741C358.7 296.641 357.6 295.741 357.2 295.741C356.8 295.741 356.2 296.641 355.9 297.741Z" fill="#ECC1EC"/>
</svg>
