<svg width="225" height="183" viewBox="0 0 225 183" fill="none" xmlns="http://www.w3.org/2000/svg">
<path d="M37.068 1.36277C21.968 4.66277 10.968 14.6628 6.46804 29.1628C3.66804 38.2628 3.36804 54.4628 5.96804 62.8628C7.76804 69.1628 15.168 81.2628 16.568 80.3628C18.268 79.3628 20.668 81.0628 20.668 83.3628C20.668 87.2628 22.468 87.2628 26.868 83.3628C30.268 80.1628 31.468 79.7628 34.268 80.1628C37.168 80.6628 37.768 80.3628 39.568 77.3628L41.568 73.9628L36.668 70.3628C30.068 65.5628 25.868 60.5628 22.768 53.8628C20.568 49.0628 20.168 47.0628 20.168 37.3628C20.168 24.2628 22.168 16.9628 27.368 10.8628C32.368 4.96277 37.768 2.56277 45.368 2.56277C60.068 2.66277 68.068 13.1628 69.368 34.0628L69.968 42.8628H73.668C78.568 42.8628 83.868 39.2628 85.368 34.8628C87.968 27.4628 84.168 16.2628 76.768 9.56277C71.468 4.76277 67.868 2.96277 59.868 1.26277C51.668 -0.437229 45.068 -0.437229 37.068 1.36277Z" fill="#EC96C1"/>
<path d="M175.168 0.46276C164.568 2.56276 161.568 3.46276 157.468 5.36276C139.668 13.9628 128.368 30.8628 122.168 58.3628C119.568 69.4628 119.068 102.563 121.068 116.763C124.468 139.463 131.568 155.763 143.168 167.463C154.468 178.963 164.568 182.863 182.668 182.863C194.668 182.763 199.968 181.863 207.168 178.263C217.668 172.963 225.468 161.863 224.368 153.563C223.868 150.063 221.368 145.863 219.668 145.863C219.268 145.863 218.468 148.363 217.768 151.363C215.968 159.463 210.168 170.263 205.568 174.163C193.868 184.263 172.168 182.563 160.868 170.863C150.868 160.463 144.868 141.263 142.768 113.563C142.268 107.063 141.668 101.563 141.468 101.263C141.168 101.063 139.568 101.563 137.768 102.463C133.368 104.663 127.868 103.763 124.968 100.363C121.768 96.6628 121.868 88.5628 125.168 81.5628C127.968 75.5628 136.568 65.4628 140.668 63.3628C143.068 62.0628 143.468 61.2628 143.968 55.0628C144.368 51.2628 145.768 43.7628 147.168 38.3628C153.568 13.1628 164.168 2.46276 182.668 2.56276C190.168 2.56276 195.968 4.96276 199.968 9.86276C203.668 14.1628 206.668 24.6628 207.368 35.6628L207.968 45.0628L211.568 44.3628C220.068 42.8628 224.668 37.1628 224.668 28.3628C224.568 14.4628 211.968 3.46276 193.368 0.96276C185.668 -0.13724 179.068 -0.23724 175.168 0.46276Z" fill="#EC96C1"/>
<path d="M137.768 74.4628C130.468 82.3628 125.968 95.8628 130.068 97.4628C131.668 98.0628 138.668 94.7628 140.368 92.6628C141.268 91.4628 143.168 69.8628 142.268 69.8628C142.068 69.8628 140.068 71.8628 137.768 74.4628Z" fill="#EC96C1"/>
<path d="M44.1681 81.2628C35.6681 92.7628 33.9681 98.2628 41.1681 90.6628C43.6681 88.0628 45.9681 84.5628 46.3681 82.8628C46.8681 79.9628 47.1681 79.8628 50.0681 80.4628C53.4681 81.1628 53.3681 81.0628 49.6681 78.6628C47.2681 77.1628 47.0681 77.2628 44.1681 81.2628Z" fill="#EC96C1"/>
<path d="M30.2681 87.7628C28.7681 89.3628 27.8681 90.8628 28.3681 91.0628C28.7681 91.3628 30.4681 90.0628 31.9681 88.2628C35.4681 84.1628 34.0681 83.7628 30.2681 87.7628Z" fill="#EC96C1"/>
<path d="M55.668 89.3628C51.068 95.2628 50.668 96.6628 54.468 93.9628C59.568 90.3628 62.868 84.6628 59.768 84.8628C59.468 84.9628 57.568 86.9628 55.668 89.3628Z" fill="#EC96C1"/>
<path d="M48.1681 88.4627C47.2681 89.8627 44.9681 92.7627 43.0681 94.7627L39.6681 98.5627L48.4681 103.863C69.1681 116.563 75.7681 128.263 74.3681 149.663C73.6681 160.263 70.8681 168.363 66.0681 173.263C60.7681 178.763 57.1681 180.163 47.5681 180.663C40.3681 181.063 38.2681 180.763 33.8681 178.863C27.4681 176.063 22.4681 170.463 19.6681 163.163C17.3681 157.063 14.6681 142.563 14.6681 136.563C14.6681 132.663 14.6681 132.663 11.4681 133.263C1.36805 135.263 -2.53195 145.363 1.66805 158.963C3.46805 165.063 4.66805 167.063 9.46805 171.863C17.5681 179.863 23.5681 182.063 39.1681 182.663C46.5681 182.963 53.1681 182.663 56.6681 181.863C77.9681 177.163 90.5681 159.463 90.6681 134.263C90.6681 119.763 87.5681 109.663 80.4681 101.463C77.3681 97.8627 77.0681 97.7627 74.2681 98.9627C71.6681 100.163 71.2681 100.063 69.6681 98.1627L67.9681 95.9627L65.6681 98.3627C62.7681 101.463 60.0681 101.563 58.5681 98.7627L57.4681 96.6627L55.1681 98.8627C53.5681 100.363 51.8681 100.863 49.5681 100.663C46.5681 100.363 46.1681 99.9627 45.8681 97.0627C45.6681 95.0627 46.2681 92.7627 47.4681 91.0627C50.0681 87.3627 50.8681 85.8627 50.3681 85.8627C50.0681 85.8627 49.1681 87.0627 48.1681 88.4627Z" fill="#EC96C1"/>
<path d="M64.768 91.0628C63.068 93.7628 63.668 94.0628 66.368 91.8628C67.968 90.5628 68.268 89.9628 67.368 89.5628C66.568 89.2628 65.468 89.9628 64.768 91.0628Z" fill="#EC96C1"/>
</svg>
